<svg xmlns="http://www.w3.org/2000/svg" width="100%" height="100%" fill="none" viewBox="0 0 100 100">
  <path fill="#2EB67D" d="M88.77 46.307a9.23 9.23 0 0 0 0-18.46 9.231 9.231 0 0 0-9.231 9.231v9.23h9.231Zm-25.847 0a9.23 9.23 0 0 0 9.231-9.23V11.232a9.23 9.23 0 0 0-18.462 0v25.845a9.23 9.23 0 0 0 9.231 9.23Z"/>
  <path fill="#E01E5A" d="M11.23 53.693a9.23 9.23 0 0 0 0 18.46 9.231 9.231 0 0 0 9.231-9.23v-9.23H11.23Zm25.847 0a9.23 9.23 0 0 0-9.231 9.23V88.77a9.23 9.23 0 0 0 18.462 0V62.924a9.23 9.23 0 0 0-9.231-9.23Z"/>
  <path fill="#ECB22E" d="M53.693 88.77a9.23 9.23 0 0 0 18.46 0 9.231 9.231 0 0 0-9.231-9.231h-9.23v9.231Zm0-25.847a9.23 9.23 0 0 0 9.23 9.23h25.845a9.23 9.23 0 0 0 9.23-9.23 9.23 9.23 0 0 0-9.23-9.23H62.923a9.23 9.23 0 0 0-9.23 9.23Z"/>
  <path fill="#36C5F0" d="M46.307 11.23a9.23 9.23 0 0 0-18.46 0 9.231 9.231 0 0 0 9.231 9.232h9.23V11.23Zm0 25.847a9.23 9.23 0 0 0-9.23-9.23H11.232a9.23 9.23 0 1 0 0 18.462l25.845-.001a9.23 9.23 0 0 0 9.23-9.231Z"/>
</svg>
