<svg width="100%" height="100%" viewBox="0 0 64 65" fill="none" xmlns="http://www.w3.org/2000/svg">
<path d="M64 26.175V41.35L61.9 43.4V28.55L64 26.175Z" fill="#E79225"/>
<path d="M50.2375 26.1875L48.0625 28.55L48.175 28.7L61.8125 28.65L61.9375 28.55L64 26.175L50.2375 26.1875Z" fill="#FFF16D"/>
<path d="M48.0625 28.55H61.9375V43.4125H48.0625V28.55Z" fill="url(#paint0_linear_1_2)"/>
<path d="M59.825 33.9C59.55 33.2125 59.1375 32.5875 58.6 32.05C58.0875 31.525 57.5125 31.125 56.8625 30.8625C56.225 30.6 55.5375 30.4625 54.7875 30.4625C54.0375 30.4625 53.3375 30.6 52.7 30.8625C52.05 31.125 51.475 31.525 50.9625 32.05C50.425 32.5875 50.025 33.2125 49.75 33.9C49.475 34.5875 49.35 35.3375 49.35 36.1625C49.35 36.9625 49.4875 37.7125 49.7625 38.4125C50.0357 39.113 50.4482 39.7509 50.975 40.2875C51.475 40.8 52.05 41.1875 52.6875 41.45C53.325 41.7125 54.0375 41.85 54.8 41.85C55.5375 41.85 56.225 41.7125 56.8625 41.45C57.5 41.1875 58.0875 40.8 58.6 40.2875C59.1375 39.7375 59.55 39.1125 59.825 38.425C60.1 37.7375 60.2375 36.975 60.2375 36.175C60.2375 35.3375 60.1 34.5875 59.825 33.9ZM56.9625 38.8C56.425 39.4375 55.7125 39.7625 54.7875 39.7625C53.8625 39.7625 53.1375 39.4375 52.6 38.8C52.0625 38.1625 51.8 37.275 51.8 36.15C51.8 35 52.075 34.1125 52.6 33.4625C53.1375 32.8125 53.85 32.5 54.7875 32.5C55.7125 32.5 56.425 32.825 56.9625 33.4625C57.4875 34.1125 57.7625 35 57.7625 36.15C57.7625 37.275 57.5 38.1625 56.9625 38.8Z" fill="white"/>
<path d="M46.7 24.9375V25.0125L48.475 38.65L47.4375 41.525L47.3 41.425L45.475 28.35L45.5125 28.175L46.65 25.0125L46.7 24.9375Z" fill="#009ADA"/>
<path d="M33.0375 26.8375L46.7 24.9375L45.55 28.2125L45.3875 28.3875L32.6125 30.2625L32.675 27.925L33.0375 26.8375Z" fill="#91C9ED"/>
<path d="M45.55 28.2125L47.4375 41.525L33.975 43.4125L32.1625 30.55L32.95 29.9375L45.55 28.2125Z" fill="url(#paint1_linear_1_2)"/>
<path d="M43.2625 30.7625C43.2 30.35 43.0625 30.0375 42.8375 29.825C42.65 29.6625 42.425 29.575 42.1625 29.575C42.1 29.575 42.025 29.575 41.95 29.5875C41.6 29.6375 41.3375 29.8 41.175 30.0625C41.05 30.25 41 30.4875 41 30.7625C41 30.8625 41.0125 30.975 41.025 31.0875L41.5125 34.55L37.6375 35.125L37.15 31.6625C37.0875 31.2625 36.95 30.95 36.725 30.7375C36.5375 30.5625 36.3125 30.475 36.0625 30.475C36 30.475 35.9375 30.475 35.875 30.4875C35.5125 30.5375 35.2375 30.7 35.0625 30.9625C34.9375 31.15 34.8875 31.3875 34.8875 31.6625C34.8875 31.7625 34.9 31.875 34.9125 32L36.2375 41.0125C36.3 41.425 36.4375 41.7375 36.6875 41.95C36.875 42.1125 37.1 42.1875 37.375 42.1875C37.45 42.1875 37.525 42.1875 37.6 42.175C37.9375 42.125 38.1875 41.9625 38.35 41.7C38.4625 41.5125 38.5125 41.2875 38.5125 41.025C38.5125 40.925 38.5 40.8125 38.4875 40.7L37.95 37.1375L41.825 36.5625L42.3625 40.125C42.425 40.5375 42.5625 40.85 42.8 41.05C42.9875 41.2125 43.2125 41.3 43.475 41.3C43.5375 41.3 43.6125 41.3 43.6875 41.2875C44.0375 41.2375 44.3 41.075 44.4625 40.8125C44.575 40.625 44.6375 40.4 44.6375 40.125C44.6375 40.025 44.625 39.9125 44.6125 39.8L43.2625 30.7625Z" fill="white"/>
<path d="M20.25 21.4625L15.3875 33.0125L16.05 38.0875L16.0875 38.075L21.55 25.7875L21.525 25.525L20.35 21.625L20.25 21.4625Z" fill="#66BF6B"/>
<path d="M20.25 21.4625L21.5375 25.7875L33.5625 31.175L33.6 31.15L32.575 27.1L20.25 21.4625Z" fill="#98D0A0"/>
<path d="M21.5125 25.7L33.6 31.15L28.1375 43.5375L16.05 38.0875L21.5125 25.7Z" fill="url(#paint2_linear_1_2)"/>
<path d="M29.9375 32.15C29.675 31.45 29.3125 30.85 28.8375 30.35C28.3625 29.85 27.7875 29.45 27.1125 29.1625C26.4375 28.875 25.7625 28.7375 25.075 28.7375H25.0375C24.3375 28.7375 23.65 28.9 22.975 29.2C22.2625 29.5125 21.65 29.9375 21.125 30.5C20.6 31.05 20.175 31.725 19.85 32.5C19.525 33.2625 19.35 34.0375 19.3125 34.8V35.0625C19.3125 35.7375 19.425 36.4 19.6625 37.05C19.9125 37.7375 20.275 38.325 20.75 38.825C21.225 39.325 21.8125 39.725 22.5125 40.0125C23.175 40.3 23.85 40.4375 24.5375 40.4375H24.55C25.2375 40.4375 25.925 40.2875 26.6 40C27.3125 39.6875 27.9375 39.25 28.4625 38.6875C28.9875 38.1375 29.425 37.475 29.75 36.7C30.075 35.925 30.25 35.1625 30.2875 34.4V34.175C30.3 33.4875 30.1875 32.8125 29.9375 32.15ZM27.525 35.75C27.075 36.825 26.4625 37.5625 25.725 37.9625C25.325 38.175 24.9125 38.2875 24.5 38.2875C24.1375 38.2875 23.75 38.2 23.3625 38.0375C22.5125 37.675 21.9875 37.1 21.7625 36.275C21.6875 36 21.65 35.7125 21.65 35.4125C21.65 34.8125 21.8 34.15 22.1 33.4375C22.5625 32.3375 23.175 31.5875 23.9125 31.175C24.3125 30.95 24.725 30.85 25.1375 30.85C25.5125 30.85 25.8875 30.9375 26.2875 31.1C27.125 31.4625 27.65 32.0375 27.875 32.8625C27.95 33.125 27.9875 33.4125 27.9875 33.7125C27.9875 34.3375 27.8375 35.0125 27.525 35.75Z" fill="white"/>
<path d="M14.425 23.425L16.4 36.65L15.5 41.3L15.375 41.1375L13.45 28.3625V28.1125L14.3 23.65L14.425 23.425Z" fill="#760D16"/>
<path d="M0 30.2625L0.9375 25.5875L14.425 23.425L13.5125 28.1875V28.5L0.1625 30.3875L0 30.2625Z" fill="#EF463E"/>
<path d="M13.5125 28.1875L15.5 41.3L2.15 43.3875L0 30.2625L13.5125 28.1875Z" fill="url(#paint3_linear_1_2)"/>
<path d="M12.075 39.2125C11.975 39.0875 11.825 39 11.65 38.9375C11.475 38.875 11.2625 38.85 11 38.85C10.7625 38.85 10.4875 38.875 10.1875 38.925L6.6625 39.525C6.7 39.25 6.8375 38.9 7.075 38.4625C7.3375 37.975 7.7375 37.3875 8.25 36.7125C8.38384 36.5306 8.52137 36.3513 8.6625 36.175C8.725 36.0875 8.825 35.975 8.95 35.8125C9.7625 34.75 10.25 33.8875 10.45 33.2125C10.5625 32.825 10.625 32.4375 10.65 32.05C10.6625 31.9375 10.6625 31.8375 10.6625 31.7375C10.6625 31.4625 10.6375 31.1875 10.5875 30.9125C10.55 30.6625 10.4875 30.4625 10.4 30.3C10.3125 30.1375 10.2125 30.0125 10.0875 29.9375C9.95 29.85 9.7375 29.8125 9.475 29.8125C9.2625 29.8125 9 29.8375 8.6875 29.8875L4.6125 30.5875C4.125 30.675 3.75 30.8125 3.525 31.0375C3.3375 31.2125 3.25 31.4375 3.25 31.6875C3.25 31.75 3.25 31.825 3.2625 31.9C3.325 32.25 3.5 32.5 3.7875 32.625C3.9625 32.7 4.1625 32.7375 4.4125 32.7375C4.575 32.7375 4.7625 32.725 4.9625 32.6875L8.3625 32.0875C8.3625 32.15 8.375 32.2125 8.375 32.2625C8.37521 32.4759 8.33711 32.6876 8.2625 32.8875C8.1625 33.175 7.9125 33.575 7.5 34.0875L6.975 34.7375C6.05 35.85 5.4 36.8 5 37.5875C4.7125 38.1375 4.525 38.6625 4.4125 39.2C4.35 39.5125 4.3125 39.8 4.3125 40.0875C4.3125 40.2875 4.325 40.4875 4.3625 40.675C4.4125 40.95 4.475 41.175 4.5625 41.35C4.65 41.525 4.775 41.6625 4.9125 41.7375C5.05 41.8125 5.2375 41.8375 5.5125 41.8375C5.85 41.8375 6.3125 41.7875 6.9 41.6875L10.6 41.05C11.25 40.9375 11.7125 40.775 11.975 40.5625C12.1875 40.3875 12.3 40.15 12.3 39.875C12.3 39.8 12.2875 39.725 12.275 39.65C12.25 39.4875 12.1875 39.3375 12.075 39.2125Z" fill="white"/>
<defs>
<linearGradient id="paint0_linear_1_2" x1="54.9994" y1="28.7627" x2="54.9994" y2="42.9639" gradientUnits="userSpaceOnUse">
<stop offset="0.005618" stop-color="#FFE513"/>
<stop offset="1" stop-color="#FDB924"/>
</linearGradient>
<linearGradient id="paint1_linear_1_2" x1="32.8517" y1="30.2636" x2="46.7765" y2="41.4462" gradientUnits="userSpaceOnUse">
<stop offset="0.005618" stop-color="#008CD2"/>
<stop offset="1" stop-color="#00649D"/>
</linearGradient>
<linearGradient id="paint2_linear_1_2" x1="24.8253" y1="30.655" x2="24.8253" y2="43.0968" gradientUnits="userSpaceOnUse">
<stop stop-color="#26A146"/>
<stop offset="1" stop-color="#008A52"/>
</linearGradient>
<linearGradient id="paint3_linear_1_2" x1="6.77875" y1="29.4351" x2="8.91925" y2="42.3536" gradientUnits="userSpaceOnUse">
<stop stop-color="#D92231"/>
<stop offset="1" stop-color="#BA2234"/>
</linearGradient>
</defs>
</svg>
